<svg class="img-one-mate" width="417" height="481" viewBox="0 0 417 481" fill="none" xmlns="http://www.w3.org/2000/svg">
    <g id="img-mates">
        <g id="Group">
            <path id="Vector" d="M365.966 126.408L355.059 137.135L354.692 137.5L363.045 176.765L361.242 178.484L360.685 179.03L361.9 179.309L362.428 178.791L364.26 177.043L355.901 137.777L358.511 135.208L367.181 126.68L365.966 126.408Z" fill="#B8A57D" />
            <path id="Vector_2" d="M362.219 125.086L353.443 136.884L362.088 176.753L359.851 179.052L360.913 179.309L362.27 177.482L362.814 176.929L354.61 137.166L354.893 136.78L363.434 125.305L362.219 125.086Z" fill="#B8A57D" />
            <path id="Vector_3" d="M364.044 172.206C374.201 172.152 378.459 177.427 373.647 192.034C375.334 205.492 391.226 199.771 388.644 222.366C384.445 237.207 375.543 242.048 375.543 242.048L374.05 242.789L372.801 242.742L371.847 242.742L370.928 242.741L369.679 242.789C369.679 242.789 350.335 241.639 346.998 232.79C340.033 214.323 356.603 208.016 354.859 194.103C347.968 180.944 353.162 172.263 364.044 172.206Z" fill="#4A846E" />
        </g>
        <path id="Vector_4" d="M190.06 89.8089C191.056 88.6845 191.754 76.3046 192.986 75.4778C192.493 77.2527 192.719 90.4924 192.791 92.3444C203.631 100.282 210.982 79.8874 218.65 79.8874C232.539 79.8874 249.447 46.2975 249.447 31.3822C249.447 16.4669 231.95 8.54525 219.163 2.72005C202.225 -4.99668 186.738 12.2021 184.773 26.9726C179.641 65.5563 183.87 82.4229 190.06 89.8089Z" fill="#2F2E41" />
        <path id="Vector_5" d="M223.316 59.0693C211.9 59.0693 202.645 49.1313 202.645 36.8721C202.645 24.6129 211.9 14.6749 223.316 14.6749C234.731 14.6749 243.986 24.6129 243.986 36.8721C243.986 49.1313 234.731 59.0693 223.316 59.0693Z" fill="#A0616A" />
        <path id="Vector_6" d="M253.393 32.0532L243.092 33.4263L240.56 31.7984L240.278 33.8014C238.829 33.9946 237.358 33.3912 236.482 32.1361C235.784 31.1346 234.923 30.2638 233.941 29.5916C234.072 30.3216 234.171 31.0569 234.239 31.7943C234.381 33.3332 233.375 34.7216 231.946 34.9121L216.784 36.9331C213.146 37.4181 210.919 41.4691 212.283 45.1239C212.283 45.1239 208.599 36.5719 205.305 39.099C198.119 44.6109 177.419 32.9386 195.044 16.2929C200.63 11.0167 205.153 11.2289 213.935 10.0582C226.54 0.527964 244.355 5.47904 250.56 20.633C251.95 24.0275 252.909 27.8578 253.393 32.0532V32.0532Z" fill="#2F2E41" />
        <path id="Vector_7" d="M207.821 171.444H268.171C263.112 159.323 260.002 147.779 264.864 138.597L207.821 135.046C210.672 147.442 211.02 159.607 207.821 171.444Z" fill="#A0616A" />
        <path id="Vector_8" d="M215.262 64.0247L239.236 62.2491L249.157 75.5656L254.186 76.5476C261.725 78.0195 267.093 85.2441 266.756 93.4646L264.8 141.212L207.497 145.699L193.768 83.522L210.302 76.4534L215.262 64.0247V64.0247Z" fill="#B8A57D" />
        <g id="Group_2">
            <path id="Vector_9" d="M204.841 454.82L214.664 455.069L220.14 407.676L205.643 407.308L204.841 454.82Z" fill="#A0616A" />
            <path id="Vector_10" d="M238.544 476.828C238.544 478.611 237.366 480.055 235.913 480.055H216.415C216.415 480.055 214.496 471.772 206.673 468.208L206.133 480.055H196.074L197.293 461.005C197.293 461.005 194.602 450.813 200.19 445.603C205.778 440.393 201.252 441.119 201.252 441.119L203.45 429.328L218.65 431.247L218.762 449.756L226.138 468.127L236.957 473.867C237.92 474.378 238.544 475.542 238.544 476.828L238.544 476.828Z" fill="#2F2E41" />
        </g>
        <g id="Group_3">
            <path id="Vector_11" d="M240.771 453.718L250.594 453.967L256.07 406.574L241.573 406.206L240.771 453.718Z" fill="#A0616A" />
            <path id="Vector_12" d="M274.473 475.726C274.473 477.508 273.296 478.953 271.843 478.953H252.344C252.344 478.953 250.426 470.67 242.602 467.105L242.062 478.953H232.004L233.222 459.903C233.222 459.903 230.532 449.711 236.12 444.501C241.708 439.291 237.182 440.016 237.182 440.016L239.38 428.226L254.58 430.145L254.691 448.654L262.068 467.025L272.887 472.764C273.85 473.275 274.473 474.439 274.473 475.726L274.473 475.726Z" fill="#2F2E41" />
        </g>
        <path id="Vector_13" d="M265.872 162.567L274.084 191.229L277.164 308.082L255.823 416.294L239.369 413.857L235.397 264.579L225.184 413.857L202.035 412.917C202.035 412.917 182.72 196.741 207.028 170.138L209.223 160.084L265.872 162.567Z" fill="#2F2E41" />
        <g id="Group_4">
            <path id="Vector_14" d="M280.85 118.327L314.717 144.868L350.877 159.978L353.39 150.81L323.76 131.926L286.961 101.648L280.85 118.327Z" fill="#A0616A" />
            <path id="Vector_15" d="M259.171 80.4636C259.171 80.4636 248.649 95.9762 256.254 102.078C263.858 108.179 286.901 136.81 286.901 136.81L305.946 114.318L259.171 80.4636V80.4636Z" fill="#B8A57D" />
            <path id="Vector_16" d="M355.72 163.829C350.834 161.208 348.047 156.558 349.496 153.442C350.945 150.326 356.081 149.925 360.968 152.546C365.854 155.167 368.641 159.817 367.192 162.933C365.743 166.049 360.607 166.45 355.72 163.829Z" fill="#A0616A" />
        </g>
        <path id="Vector_17" d="M416.445 478.64C416.445 479.368 415.901 479.952 415.224 479.952H1.22156C0.544067 479.952 -6.10352e-05 479.368 -6.10352e-05 478.64C-6.10352e-05 477.913 0.544067 477.328 1.22156 477.328H415.224C415.901 477.328 416.445 477.913 416.445 478.64Z" fill="#CCCCCC" />
        <g id="brazo-derecho">
            <path id="Vector_18" d="M186.491 135.274L187.03 180.295L197.461 220.428L205.8 217.087L202.097 180.301L202.584 130.52L186.491 135.274Z" fill="#A0616A" />
            <path id="Vector_19" d="M197.497 226.899C196.519 221.128 198.312 215.944 201.503 215.321C204.693 214.697 208.073 218.869 209.052 224.64C210.03 230.411 208.237 235.595 205.046 236.219C201.855 236.842 198.475 232.67 197.497 226.899Z" fill="#A0616A" />
            <path id="Vector_20" d="M199.15 81.6687C199.15 81.6687 181.28 81.9329 181.295 92.1266C181.31 102.32 183.27 140.259 183.27 140.259L211.453 143.131L199.15 81.6687Z" fill="#B8A57D" />
        </g>
    </g>
</svg>