<svg class="img-dos-mates-bombillas" width="356" height="504" viewBox="0 0 356 504" fill="none" xmlns="http://www.w3.org/2000/svg">
    <g id="img-dos-mates-bombillas">
        <path id="Vector" opacity="0.5" d="M198.936 502.759C204.902 501.996 210.022 473.134 213.481 427.112C215.73 397.596 217.264 361.006 217.898 320.256C217.941 317.332 217.973 314.396 218.015 311.432C218.057 308.108 218.093 304.756 218.125 301.375L218.121 301.094C218.129 300.61 218.129 300.131 218.135 299.654C218.235 286.91 218.251 273.843 218.185 260.452C218.192 260.183 218.189 259.918 218.187 259.654L218.183 258.974C218.163 255.772 218.13 252.567 218.108 249.309C218.102 248.971 218.107 248.622 218.101 248.284C218.098 247.812 218.09 247.354 218.091 246.891C218.084 246.745 218.092 246.596 218.08 246.464C218.082 246.185 218.076 245.912 218.068 245.661C218.023 242.451 217.995 239.207 217.944 236.035C217.861 230.842 217.775 225.699 217.687 220.606C217.673 219.712 217.654 218.827 217.63 217.951C217.587 215.386 217.537 212.837 217.478 210.304C217.452 209.336 217.427 208.361 217.411 207.406C217.39 206.672 217.379 205.933 217.362 205.208C217.164 197.298 216.937 189.529 216.68 181.902C216.682 181.876 216.69 181.851 216.705 181.83C215.727 152.8 214.348 125.979 212.624 102.353C212.61 102.228 212.61 102.101 212.596 101.976L212.415 99.4702C207.916 39.0549 201.302 0.447782 194.251 1.37239C187.007 2.29423 180.978 44.8266 177.674 109.269C177.625 110.123 177.587 110.964 177.55 111.822C177.533 111.987 177.524 112.152 177.524 112.316C177.336 115.648 177.173 119.053 177.036 122.53C177.024 122.733 177.018 122.939 177.012 123.144C176.648 131.165 176.34 139.471 176.087 148.062C176.056 149.217 176.005 150.389 175.989 151.566C175.592 164.837 175.283 178.69 175.131 193.029C175.115 193.91 175.108 194.786 175.097 195.676C174.937 210.036 174.879 224.854 174.939 240.016C174.947 240.977 174.952 241.945 174.95 242.911C174.95 243.119 174.953 243.319 174.96 243.529C174.984 247.291 175.009 251.069 175.036 254.864C175.053 255.924 175.031 256.97 175.069 258.03C175.094 260.714 175.12 263.398 175.184 266.055C175.181 266.294 175.184 266.534 175.19 266.768C175.196 267.002 175.197 267.146 175.205 267.332C175.203 267.795 175.211 268.253 175.219 268.711C175.237 269.955 175.248 271.196 175.271 272.426C175.3 274.577 175.337 276.705 175.369 278.849L175.385 279.493C175.374 279.519 175.365 279.545 175.358 279.572C175.514 288.202 175.706 296.699 175.935 305.062C176.01 307.883 176.088 310.686 176.169 313.472C176.231 315.53 176.288 317.578 176.36 319.607C176.853 334.767 177.453 349.325 178.156 363.167C182.444 446.765 190.393 503.856 198.936 502.759Z" fill="#B8A57D" />
        <path id="Vector_2" opacity="0.5" d="M204.415 447.635C208.072 447.218 210.882 426.4 212.463 393.1C213.484 371.746 213.996 345.249 213.923 315.724L213.889 309.323C213.878 306.918 213.86 304.49 213.836 302.038C213.833 301.969 213.832 301.9 213.836 301.83L213.821 300.787C213.74 291.533 213.594 282.059 213.382 272.365C213.386 272.167 213.378 271.98 213.373 271.787C213.367 271.593 213.37 271.459 213.362 271.296C213.315 268.964 213.26 266.637 213.206 264.287L213.184 263.536L213.163 262.531C213.157 262.425 213.159 262.314 213.156 262.217C213.154 262.12 213.142 261.821 213.136 261.627C213.074 259.274 213.012 256.939 212.95 254.623C212.837 250.857 212.723 247.126 212.61 243.429L212.551 241.508C212.476 239.638 212.432 237.802 212.368 235.959L212.293 233.857C212.269 233.321 212.258 232.79 212.245 232.243C212.027 226.508 211.793 220.869 211.543 215.326C211.545 215.309 211.55 215.291 211.56 215.276C210.618 194.188 209.433 174.725 208.101 157.567C208.089 157.476 208.087 157.379 208.075 157.287L207.939 155.467C204.447 111.563 199.912 83.4307 195.593 83.9308C191.146 84.4432 187.953 115.151 186.69 161.801L186.642 163.654C186.637 163.772 186.633 163.89 186.634 164.01C186.57 166.427 186.512 168.885 186.462 171.386L186.453 171.83C186.335 177.646 186.248 183.661 186.19 189.876C186.18 190.719 186.168 191.569 186.171 192.417C186.085 202.026 186.072 212.076 186.136 222.464L186.146 224.376C186.218 234.783 186.367 245.498 186.591 256.521C186.602 257.22 186.613 257.919 186.631 258.62C186.636 258.773 186.643 258.919 186.641 259.07L186.827 267.288L186.885 269.584C186.934 271.533 186.982 273.483 187.038 275.411C187.035 275.585 187.042 275.755 187.048 275.925C187.054 276.095 187.054 276.199 187.064 276.338L187.09 277.329C187.117 278.233 187.137 279.134 187.167 280.031L187.248 284.707L187.266 285.176L187.246 285.233C187.449 291.5 187.667 297.664 187.903 303.724C187.979 305.773 188.062 307.809 188.153 309.831C188.212 311.332 188.276 312.818 188.345 314.29C188.832 325.287 189.372 335.862 189.971 345.908C193.617 406.691 199.173 448.241 204.415 447.635Z" fill="#B8A57D" />
        <path id="Vector_3" d="M47.1207 231.84C47.807 229.848 49.2099 231.481 49.4249 231.651C50.3523 231.252 51.3114 230.963 52.2844 230.792C56.9838 229.879 63.3798 230.542 68.3755 231.361C68.3944 231.36 68.4126 231.366 68.427 231.379C72.8308 232.097 76.1196 232.959 76.1196 232.959L78.5595 233.84L79.4734 234.155C79.3347 233.515 78.9994 232.958 78.5209 232.573C77.8706 232.245 81.5371 233.181 83.2741 233.636L83.3449 233.66L84.1498 233.873C87.5354 236.126 96.3334 233.224 96.3334 233.224L98.7038 228.978C97.0879 224.723 100.333 216.602 100.333 216.602C100.333 216.602 101.056 213.752 100.026 209.133C98.9969 204.514 102.564 203.043 102.564 203.043L100.166 196.858C100.624 196.092 100.944 195.245 101.107 194.364C101.269 193.484 101.271 192.589 101.112 191.73C101.005 191.239 100.821 190.776 100.568 190.361L100.581 190.325L100.539 190.239C98.6681 187.079 99.1256 178.5 99.1256 178.5C99.1256 178.5 100.12 177.285 98.525 172.511L98.5398 172.468C98.3258 171.835 98.0597 171.145 97.745 170.365C97.7622 170.315 97.6997 170.246 97.6783 170.183C94.8122 163.413 97.624 161.188 97.624 161.188L105.891 155.523C105.409 152.594 122.214 138.555 122.214 138.555C122.214 138.555 124.835 135.377 125.266 131.62C125.332 130.724 125.61 129.846 126.072 129.071C126.336 128.635 126.694 128.272 127.112 128.016C127.368 127.863 127.646 127.767 127.931 127.731L128.329 127.828L128 127.3C127.86 127.1 127.731 126.888 127.594 126.681C127.136 126.715 126.685 126.727 126.233 126.723C121.819 126.777 117.535 125.624 113.774 123.371C110.014 121.118 106.897 117.836 104.711 113.829C104.597 113.638 104.494 113.435 104.398 113.234C104.302 113.033 104.125 112.709 103.997 112.433C103.939 112.309 103.878 112.192 103.833 112.073C103.788 111.953 103.644 111.64 103.555 111.418C103.456 111.559 103.359 111.694 103.253 111.833C102.834 112.396 102.378 112.928 101.891 113.424C101.849 113.471 101.802 113.514 101.754 113.552C101.748 113.575 101.741 113.596 101.731 113.617C101.65 113.708 101.557 113.788 101.471 113.87C100.87 114.424 100.209 114.895 99.5059 115.27C99.3329 115.364 99.1553 115.447 98.974 115.518C98.7081 115.638 98.4343 115.734 98.1558 115.803C98.1108 115.824 98.0643 115.84 98.0168 115.851C97.9673 115.87 97.9165 115.885 97.865 115.894C97.8109 115.508 97.7655 115.117 97.7267 114.728C97.3789 111.3 97.6998 107.785 98.6691 104.408C98.8006 104.001 98.9093 103.588 98.9947 103.17C99.065 102.853 99.0868 102.528 99.0591 102.21C99.0081 101.586 98.7772 101.006 98.3987 100.553C97.7769 99.8514 97.0846 99.2274 96.333 98.6914L96.1605 98.5441L95.9479 98.3671L95.5429 97.9959L95.4804 97.9265C95.361 97.8134 95.2593 97.6906 95.1488 97.5726C95.1195 97.5259 95.0863 97.4824 95.0496 97.4426C94.9283 97.2941 94.8198 97.1338 94.7251 96.9634L94.6804 96.8841C94.5918 96.736 94.5158 96.5789 94.4533 96.4146C94.4215 96.3397 94.4139 96.2573 94.3821 96.1824C94.3405 96.0713 94.308 95.9559 94.285 95.8375L94.2166 95.5344C94.2105 95.4436 94.1981 95.3539 94.1794 95.2661C94.0684 93.9896 94.2705 92.6824 94.7657 91.4751C95.4658 89.7358 96.5259 88.1844 97.1191 86.4003C98.5247 82.1329 97.1606 77.1269 98.8589 72.9923C100.337 69.4128 103.742 67.4077 107.028 66.0004C110.314 64.593 113.825 63.431 116.315 60.6553C118.177 58.5737 119.295 55.7885 121.072 53.6215C124.796 49.0828 131.471 48.1005 136.054 51.4126C138.795 53.4034 140.685 56.5701 143.234 58.8462C144.921 60.3457 146.859 61.4288 148.534 62.9404C150.51 64.7329 152.044 67.0278 153.015 69.6432C153.188 70.1021 153.342 70.5544 153.474 71.0473L153.595 71.5121C153.683 71.862 153.771 72.2118 153.835 72.5693C153.868 72.7244 153.897 72.8702 153.921 73.0302C154.014 73.5241 154.082 74.0247 154.125 74.5297C154.171 75.001 154.189 75.4704 154.205 75.947C154.273 78.6538 153.946 81.4001 154.234 84.0548C154.293 84.6571 154.392 85.2514 154.529 85.8333C154.718 86.6414 154.987 87.4287 155.247 88.221C155.316 88.4367 155.386 88.6524 155.461 88.8538C155.484 88.9552 155.515 89.054 155.553 89.1492C155.597 89.3159 155.655 89.4799 155.705 89.6488C155.755 89.8177 155.764 89.8529 155.789 89.9491C155.813 90.0454 155.881 90.3084 155.913 90.4871C155.945 90.6658 155.963 90.656 155.981 90.75C156.033 91.0157 156.071 91.284 156.108 91.5524L156.09 91.6024C156.186 92.4952 156.092 93.4129 155.814 94.2861C155.674 94.7173 155.47 95.1248 155.211 95.492C155.144 95.586 155.072 95.676 154.996 95.7613C154.82 95.9575 154.619 96.1252 154.4 96.2586C154.396 96.5208 154.402 96.7945 154.392 97.0545C154.372 97.6547 154.335 98.2647 154.287 98.8632C154.247 99.2725 154.202 99.6324 154.144 100.052C153.946 101.601 153.631 103.138 153.202 104.646L153.532 105.024C154.12 105.673 154.745 106.28 155.404 106.843L155.481 106.869C156.071 107.248 160.158 109.806 161.819 110.043L167.744 110.879C167.744 110.879 169.236 110.73 170.904 110.466C172.145 110.317 173.372 109.979 174.548 109.462C176.047 108.557 185.196 105.848 186.739 106.387C187.407 106.495 188.104 106.339 188.705 105.947C189.39 105.475 190.049 104.957 190.678 104.399C190.678 104.399 190.856 104.364 191.142 104.287C191.586 103.937 191.882 103.663 191.882 103.663C191.882 103.663 194.522 103.088 197.268 102.325L197.477 104.793C197.491 104.917 197.497 105.047 197.509 105.179C199.409 128.754 201.145 155.522 202.598 184.445C202.586 184.467 202.578 184.491 202.574 184.516C202.968 192.106 203.337 199.849 203.678 207.745L203.767 209.932L203.896 212.819L204.203 220.432L204.313 223.081C204.511 228.148 204.704 233.273 204.891 238.454C205.007 241.629 205.117 244.833 205.223 248.064C205.226 248.328 205.239 248.604 205.248 248.871C205.258 249.01 205.258 249.154 205.266 249.3C205.273 249.758 205.294 250.22 205.306 250.687C205.321 251.02 205.328 251.374 205.343 251.707C205.441 254.935 205.532 258.16 205.63 261.325L206.023 261.771L205.648 262.002C205.657 262.268 205.669 262.528 205.666 262.807C206.054 276.101 206.372 289.108 206.621 301.828L206.647 303.258L206.657 303.541C206.719 306.901 206.771 310.233 206.813 313.538C206.852 316.49 206.893 319.416 206.935 322.316C207.452 362.84 207.181 399.171 206.203 428.446C206.488 428.871 206.784 429.349 207.072 429.871C206.774 429.377 206.494 428.874 206.207 428.495C205.969 428.14 205.71 427.803 205.432 427.485C204.828 426.778 204.327 425.973 203.944 425.096C203.765 424.715 203.596 424.329 203.438 423.931C202.575 421.534 201.898 419.052 201.415 416.51C201.308 416.185 201.175 415.872 201.018 415.574L200.795 415.114L200.76 415.047C200.635 414.804 200.505 414.535 200.351 414.251L200.324 414.202L200.096 413.779L200.069 413.73L199.824 413.271C199.068 411.892 198.129 410.251 197.232 408.696L196.904 408.143L195.802 406.262L195.254 405.347L194.04 403.331C194.034 403.296 194.027 403.262 194.018 403.228C193.94 402.953 193.755 402.339 193.493 401.49C193.49 401.471 193.481 401.454 193.467 401.441C193.44 401.332 193.407 401.225 193.369 401.12C192.992 399.999 192.485 398.587 191.86 397.142C191.782 396.971 191.708 396.786 191.618 396.611L191.386 396.092L190.992 395.293C190.603 394.51 190.17 393.756 189.696 393.034C189.098 392.088 188.553 391.1 188.066 390.076L187.959 389.864C187.891 389.705 187.813 389.534 187.726 389.369C187.664 389.249 187.608 389.126 187.558 388.999L187.38 388.618L187.088 387.983L186.904 387.576L186.468 386.627L185.992 385.521L185.921 385.352C185.68 384.774 185.436 384.187 185.183 383.605L184.896 382.915C184.779 382.627 184.664 382.332 184.545 382.051C184.342 381.574 184.147 381.116 183.948 380.608L183.519 379.533C183.383 379.175 183.24 378.838 183.11 378.506C182.896 377.977 182.694 377.476 182.509 376.989L182.468 376.879L181.98 375.641C181.98 375.641 181.98 375.641 181.959 375.578C181.835 375.288 181.733 375.021 181.637 374.756L181.542 374.508C181.44 374.281 181.36 374.054 181.287 373.869C180.999 373.139 180.838 372.708 180.838 372.708L177.566 363.395L174.299 353.716L174.148 353.297C174.148 353.297 173.508 350.265 172.685 347.658L172.575 347.308C172.302 346.397 171.945 345.522 171.509 344.697C171.157 344.036 170.865 343.337 170.638 342.608C170.606 342.597 170.607 342.509 170.583 342.453C169.622 339.599 168.584 335.32 168.259 333.922L168.149 333.469C167.74 332.711 167.4 331.909 167.131 331.074C166.794 330.089 166.61 329.041 166.587 327.971C166.541 327.002 166.386 326.05 166.124 325.136C166.125 325.124 166.129 325.112 166.136 325.101L166.087 324.908L165.902 324.254C165.414 324.194 164.932 324.098 164.461 323.965C162.315 323.325 160.304 322.298 158.51 320.924C158.457 320.886 158.406 320.845 158.358 320.8C157.877 320.482 157.523 320.216 157.335 320.072L157.17 319.943L155.412 312.07L155.367 311.887C155.367 311.887 154.021 308.939 152.819 305.866C152.688 305.533 152.565 305.203 152.438 304.88C151.592 302.656 150.903 300.518 150.962 299.532C151.093 297.061 149.121 291.271 149.121 291.271C149.121 291.271 146.01 280.552 144.757 276.478C144.707 276.309 144.657 276.141 144.61 276.005L144.438 275.458C144.346 275.489 144.256 275.528 144.168 275.573C143.922 275.708 143.686 275.867 143.464 276.049C143.441 276.075 143.416 276.098 143.39 276.119L143.298 275.736C143.232 275.49 143.151 275.119 143.031 274.654C142.767 274.789 142.518 274.958 142.289 275.157L142.199 275.23C142.199 275.23 135.846 249.993 135.75 243.459C135.683 242.08 135.472 240.724 135.119 239.417C133.825 234.251 130.868 227.786 129.453 224.83L129.028 223.973C128.811 223.515 128.676 223.261 128.676 223.261L128.252 223.738C128.237 223.781 128.223 223.824 128.16 223.858C127.127 225.059 124.945 227.757 125.251 228.813C125.633 230.191 123.812 242.141 123.812 242.141C123.812 242.141 124.91 248.046 120.48 255.008C116.05 261.971 107.556 262.007 105.917 261.267C104.866 260.785 93.841 261.897 85.993 262.795L84.0594 263.015L82.113 263.231L79.071 263.596L78.8983 263.617C78.6466 263.658 78.3908 263.689 78.1465 263.709L78.0802 263.462L78.0527 263.333L77.2935 263.447L78.0773 263.262C77.9561 262.757 77.7574 261.85 77.5427 260.634C77.539 260.554 77.5276 260.475 77.5086 260.399L77.444 260.001L77.3383 259.326C77.3332 259.236 77.3167 259.158 77.3067 259.083L77.2093 258.363C77.1999 258.327 77.1933 258.29 77.1897 258.252C77.0601 257.249 76.9456 256.14 76.8864 254.953C76.8687 254.795 76.856 254.623 76.8473 254.461L75.2409 253.731L74.1321 253.23L73.5082 252.951L72.7034 252.57L72.2813 252.52L55.9846 248.326L54.7917 248.027C53.2307 247.654 51.7798 246.925 50.5317 245.888C49.2836 244.851 48.266 243.528 47.5439 242.005C46.8218 240.481 46.4112 238.79 46.3383 237.039C46.2654 235.289 46.5319 233.518 47.1207 231.84Z" fill="url(#paint0_linear_147_4)" />
        <path id="Vector_4" d="M79.2797 264.579C79.2797 264.579 73.4659 242.291 85.169 235.095L102.458 248.424L98.686 256.028C98.686 256.028 86.4683 263.965 79.2797 264.579Z" fill="#65617D" />
        <path id="Vector_5" opacity="0.1" d="M102.458 248.424L98.686 256.028C98.686 256.028 90.0685 261.604 83.0571 263.772C81.8107 264.171 80.5391 264.438 79.2604 264.572C79.2604 264.572 79.2216 264.455 79.1682 264.213C79.1618 264.185 79.1571 264.157 79.1542 264.128C78.5037 261.281 78.0832 258.363 77.8971 255.405C77.835 254.29 77.804 253.105 77.8101 251.918C77.9224 247.412 78.7083 242.54 81.2302 238.857C82.1533 237.489 83.3103 236.32 84.6318 235.421C84.7435 235.348 84.8576 235.267 84.9822 235.198C85.0354 235.157 85.0914 235.12 85.1497 235.088L85.5317 235.38L91.3807 239.887L102.458 248.424Z" fill="black" />
        <path id="Vector_6" d="M203.285 220.922L204.368 223.108L204.259 220.459L203.285 220.922Z" fill="#65617D" />
        <path id="Vector_7" opacity="0.1" d="M203.285 220.922L204.368 223.108L204.259 220.459L203.285 220.922Z" fill="black" />
        <path id="Vector_8" d="M82.4571 236.069C82.4571 236.069 87.4214 249.288 80.0138 254.026C80.0138 254.026 77.254 253.97 73.3335 253.458C64.3053 252.263 49.1581 248.641 47.6917 237.642C45.6014 221.893 77.2485 234.155 77.2485 234.155L79.6577 235.041L82.4571 236.069Z" fill="#FBBEBE" />
        <path id="Vector_9" opacity="0.1" d="M82.4571 236.069C82.4571 236.069 87.4214 249.288 80.0139 254.026C80.0139 254.026 77.254 253.97 73.3335 253.458L72.2891 252.978C73.8906 252.908 75.4809 252.458 76.9481 251.66C78.8513 250.567 80.6259 248.551 80.6424 244.867C80.668 242.767 80.5734 240.676 80.3594 238.605C80.2452 237.385 80.01 236.19 79.6577 235.041L82.4571 236.069Z" fill="black" />
        <path id="Vector_10" d="M89.9765 260.909L87.2123 259.653L77.9163 255.412L73.1767 253.244C74.7764 253.174 76.3648 252.723 77.8293 251.924C79.7349 250.824 81.5135 248.817 81.53 245.133C81.553 243.031 81.4593 240.937 81.2495 238.864C80.856 235.534 80.1679 234.083 79.6117 233.795C79.0555 233.508 82.5909 234.406 84.2868 234.855L84.3512 234.877C84.8358 234.996 85.1496 235.088 85.1496 235.088L85.551 235.386L91.253 239.651L91.4024 239.886C92.5375 241.691 99.1726 253.153 89.9765 260.909Z" fill="#E7EFFD" />
        <path id="Vector_11" d="M162.706 290.378L163.959 318.88C163.959 318.88 164.989 321.471 165.808 324.109C165.818 324.159 165.833 324.207 165.852 324.252L166.041 324.916C166.065 324.977 166.085 325.039 166.099 325.104C166.092 325.115 166.088 325.127 166.087 325.14C166.446 326.251 166.664 327.419 166.733 328.613C166.751 329.456 166.874 330.286 167.1 331.079C167.382 332.075 167.76 333.029 168.228 333.928C168.246 333.972 168.268 334.014 168.293 334.054C168.293 334.054 169.458 339.031 170.552 342.459C170.576 342.515 170.585 342.574 170.607 342.613C170.878 343.511 171.223 344.376 171.639 345.197C172.003 345.866 172.306 346.575 172.544 347.314L172.654 347.663C173.532 350.361 174.268 353.722 174.268 353.722L177.598 363.198L181.008 372.799L181.335 373.71L181.59 374.349L181.684 374.597L182.006 375.419C182.006 375.419 182.038 375.43 182.028 375.482L182.515 376.72L182.557 376.83C182.753 377.305 182.94 377.809 183.157 378.347C183.288 378.679 183.431 379.016 183.567 379.374L183.996 380.448C184.192 380.923 184.393 381.384 184.593 381.892C184.712 382.173 184.826 382.468 184.943 382.756L185.231 383.446C185.484 384.028 185.728 384.615 185.968 385.193L186.04 385.361L186.515 386.468L186.952 387.417L187.136 387.823L187.428 388.459L187.606 388.84C187.655 388.967 187.712 389.09 187.774 389.209C187.85 389.387 187.93 389.551 188.007 389.705L188.113 389.917C188.603 390.993 189.161 392.029 189.782 393.016C190.39 393.957 190.937 394.946 191.419 395.976L191.651 396.495C191.741 396.67 191.815 396.855 191.893 397.025C192.511 398.468 193.018 399.881 193.402 401.003C193.44 401.108 193.473 401.215 193.5 401.325C193.513 401.337 193.523 401.354 193.526 401.374C193.793 402.208 193.973 402.837 194.051 403.112L194.095 403.255L195.309 405.27L195.857 406.186L196.959 408.067L197.287 408.619C198.191 410.176 199.123 411.815 199.88 413.194L200.124 413.654L200.151 413.703L200.38 414.125L200.406 414.174C200.56 414.458 200.691 414.727 200.816 414.97L200.85 415.038L201.073 415.498C201.209 415.765 201.321 416.047 201.409 416.34C201.899 418.91 202.591 421.417 203.479 423.834C203.637 424.231 203.806 424.617 203.985 424.998C204.349 425.813 204.818 426.562 205.377 427.227C205.686 427.568 205.971 427.933 206.232 428.32C207.21 399.045 207.481 362.714 206.964 322.191C206.928 319.287 206.887 316.361 206.842 313.412C206.787 310.103 206.735 306.771 206.686 303.416L206.676 303.133L206.65 301.702C206.418 289.004 206.099 275.997 205.695 262.681C205.693 262.416 205.681 262.157 205.677 261.876L206.052 261.646L205.659 261.199C205.574 257.975 205.463 254.807 205.372 251.581C205.357 251.248 205.35 250.894 205.335 250.562C205.323 250.094 205.302 249.632 205.294 249.174C205.287 249.028 205.286 248.884 205.277 248.745C205.27 248.471 205.257 248.195 205.252 247.938C205.142 244.705 205.031 241.502 204.92 238.328L188.734 248.483L188.059 248.897L176.809 255.842L176.127 256.254L172.624 258.417L170.731 259.586L169.819 260.142L158.552 267.097L158.405 267.19L157.877 267.511L162.706 290.378Z" fill="#858585" />
        <path id="Vector_12" d="M160.392 112.93L153.487 138.11C153.487 138.11 131.031 141.553 131.735 137.691C132.002 136.186 130.336 132.976 128.182 129.615C124.792 124.302 120.2 118.591 120.2 118.591C120.2 118.591 150.339 93.2065 150.309 100.671C150.298 103.398 151.634 105.768 153.34 107.673C155.391 109.843 157.772 111.618 160.392 112.93Z" fill="#FBBEBE" />
        <path id="Vector_13" opacity="0.1" d="M150.309 100.671C150.298 103.398 149.917 103.898 151.616 105.801C149.604 113.206 146.637 121.775 139.856 125.867C136.229 128.068 132.231 129.352 128.182 129.614C124.792 124.302 120.2 118.591 120.2 118.591C120.2 118.591 150.339 93.2063 150.309 100.671Z" fill="black" />
        <path id="Vector_14" d="M151.456 86.4119C152.982 89.6481 153.885 93.2201 154.114 96.9239C154.342 100.628 153.892 104.391 152.788 107.998C151.684 111.606 149.949 114.987 147.682 117.949C145.414 120.911 142.658 123.396 139.571 125.261C136.485 127.127 133.128 128.337 129.692 128.822C126.257 129.307 122.81 129.058 119.548 128.089C116.286 127.12 113.274 125.449 110.683 123.173C108.092 120.897 105.974 118.06 104.448 114.824L104.29 114.466C101.256 107.906 100.831 100.137 103.108 92.8692C105.384 85.6014 110.177 79.43 116.43 75.7126C122.684 71.9952 129.887 71.0363 136.454 73.0468C143.021 75.0573 148.415 79.8726 151.449 86.4333L151.456 86.4119Z" fill="#FBBEBE" />
        <path id="Vector_15" opacity="0.1" d="M163.719 283.3C164.124 284.757 165.558 284.963 168.8 282.575C170.276 281.555 171.812 280.651 173.397 279.87C173.695 279.717 174.008 279.562 174.319 279.389C177.563 277.768 181.646 275.908 186.102 273.738L186.386 273.604C188.369 272.635 190.446 271.601 192.536 270.509L193.784 269.853C196.657 268.327 199.583 266.668 202.455 264.854L202.579 264.786C203.634 264.127 204.688 263.452 205.725 262.803C205.723 262.538 205.711 262.279 205.707 261.998L206.082 261.768L205.688 261.321C205.604 258.097 205.493 254.929 205.402 251.703C205.387 251.37 205.38 251.016 205.365 250.684C205.353 250.216 205.332 249.754 205.324 249.296C205.317 249.15 205.316 249.006 205.307 248.867L204.194 249.65C202.386 250.927 200.55 252.203 198.705 253.46L198.544 253.572C197.503 254.276 196.468 254.981 195.424 255.691C195.391 255.68 195.339 255.75 195.297 255.767C194.143 256.544 192.978 257.293 191.821 257.996L191.151 258.396C189.914 259.144 188.699 259.827 187.494 260.482C184.662 262.014 181.925 263.355 179.462 264.423C179.222 264.532 178.992 264.636 178.749 264.736C176.568 265.694 174.585 266.496 172.9 267.081L172.13 267.375L171.179 267.71C168.964 268.496 167.641 268.887 167.641 268.887C167.641 268.887 167.208 269.831 166.634 271.247C166.301 272.066 165.914 273.043 165.54 274.065C164.364 277.396 163.192 281.401 163.719 283.3Z" fill="black" />
        <path id="Vector_16" d="M163.719 283.3C164.36 284.136 165.814 283.95 168.501 281.961C170.036 280.901 171.637 279.965 173.288 279.162L173.375 279.12L174.208 278.688C177.337 277.131 181.211 275.352 185.428 273.291C185.523 273.253 185.616 273.207 185.705 273.155C188.027 272.038 190.456 270.799 192.912 269.521C193.323 269.311 193.739 269.087 194.163 268.858C196.812 267.438 199.501 265.905 202.144 264.252L202.264 264.174L205.682 262.029L206.057 261.799L205.663 261.352C205.579 258.129 205.468 254.96 205.377 251.734C205.362 251.402 205.355 251.048 205.34 250.715C205.328 250.248 205.307 249.785 205.299 249.328C205.292 249.181 205.291 249.037 205.282 248.898C205.275 248.624 205.262 248.349 205.257 248.091C203.288 249.481 201.265 250.9 199.237 252.294C199.216 252.302 199.197 252.314 199.181 252.331L198.232 252.994C197.15 253.731 196.073 254.454 194.994 255.184C194.047 255.84 193.06 256.45 192.098 257.046C191.931 257.156 191.759 257.256 191.588 257.357C191.417 257.457 191.14 257.634 190.921 257.766C187.132 260.015 183.235 262.021 179.253 263.776C179.02 263.887 178.783 263.989 178.546 264.091C176.443 265.012 174.529 265.782 172.906 266.397C172.604 266.5 172.312 266.615 172.032 266.718L171.081 267.053C168.768 267.854 167.376 268.277 167.376 268.277C167.376 268.277 166.656 269.865 165.817 272.028C165.473 272.923 165.112 273.909 164.769 274.925C163.617 278.329 162.735 282.018 163.719 283.3Z" fill="#5F5D7E" />
        <path id="Vector_17" opacity="0.1" d="M122.584 155.972L158.557 267.082L161.662 276.689L162.119 278.101C162.947 276.99 163.831 275.929 164.769 274.925C165.019 274.659 165.282 274.375 165.568 274.09C167.317 272.229 169.34 270.702 171.541 269.584C171.858 269.437 172.177 269.308 172.488 269.199L172.996 269.039C173.48 268.902 173.973 268.818 174.466 268.787C176.195 268.546 177.89 267.972 179.47 267.093L180.167 266.742C184.063 264.554 187.815 262.049 191.388 259.253C191.613 259.082 191.828 258.917 192.028 258.754C193.184 257.867 193.885 257.294 193.885 257.294C193.885 257.294 194.6 256.806 195.736 256.103C196.664 255.496 197.859 254.726 199.122 253.963C201.115 252.674 203.204 251.586 205.361 250.715C205.349 250.247 205.329 249.785 205.321 249.327C205.314 249.181 205.313 249.037 205.303 248.898C205.297 248.624 205.284 248.348 205.279 248.091C205.169 244.858 205.058 241.655 204.947 238.481C204.757 233.305 204.565 228.18 204.368 223.108L204.259 220.459L203.951 212.846L203.823 209.959L203.734 207.772C203.383 199.889 203.015 192.146 202.629 184.543L174.886 128.665L170.747 124.252L166.756 120.018L162.883 119.93L162.308 119.907L158.549 119.825L158.504 119.81L157.595 119.792L155.731 119.749L150.648 131.805L150.611 131.912L150.493 132.255L148.12 134.169L146.638 135.375L146.165 135.412L144.163 135.56L143.559 135.6L143.336 135.619L141.584 135.75L136.611 136.121L134.345 139.333L132.909 141.41L132.129 142.523L131.478 143.304L122.584 155.972Z" fill="black" />
        <path id="Vector_18" d="M122.003 154.734L158.41 267.175L161.553 276.86L161.675 276.694C162.94 275.021 164.331 273.461 165.83 272.032C166.099 271.774 166.39 271.514 166.679 271.262C168.074 269.99 169.634 268.956 171.299 268.199C171.617 268.069 171.931 267.953 172.243 267.861C172.478 267.785 172.716 267.723 172.955 267.675C173.263 267.613 173.572 267.573 173.882 267.555C175.677 267.302 177.434 266.698 179.069 265.773L179.774 265.417C182.43 263.949 185.01 262.309 187.5 260.508C188.83 259.553 190.022 258.662 190.989 257.925L191.629 257.427C191.804 257.295 191.963 257.167 192.114 257.043C192.882 256.445 193.334 256.073 193.334 256.073C193.334 256.073 196.165 254.126 199.209 252.332C199.226 252.316 199.245 252.304 199.265 252.296C200.857 251.306 202.505 250.436 204.195 249.69C204.564 249.54 204.942 249.422 205.325 249.336C205.318 249.19 205.317 249.046 205.307 248.907C205.301 248.633 205.288 248.357 205.283 248.1C205.173 244.868 205.062 241.664 204.951 238.49C204.761 233.314 204.569 228.19 204.372 223.117L204.263 220.468L203.955 212.856L203.827 209.968L203.738 207.781C203.387 199.898 203.019 192.155 202.633 184.553C202.638 184.528 202.646 184.504 202.658 184.481L174.332 127.412L170.787 123.635L166.204 118.758L162.481 118.673L161.903 118.657L158.865 118.593L158.153 118.571L157.31 118.552L155.165 118.508L149.895 131.003L149.211 131.566L149.101 131.656L148.959 131.775L146.889 133.457L146.048 134.142L143.579 134.329L140.505 134.556L136.012 134.892L133.072 139.078L132.548 139.824L131.787 140.903L131.418 141.431L131.184 141.757L122.003 154.734Z" fill="#E7EFFD" />
        <path id="Vector_19" opacity="0.1" d="M138.168 140.315C138.168 140.315 146.47 143.679 147.008 145.086C147.546 146.493 148.855 149.819 148.855 149.819L148.86 160.586C148.86 160.586 151.616 172.356 152.639 174.53C153.661 176.703 159.081 197.625 159.081 197.625L168.593 229.117L181.258 270.264L191.124 276.675L194.812 267.268L171.31 194.483L166.796 180.063C166.796 180.063 157.36 154.914 156.154 152.438C154.948 149.962 150.821 144.092 150.821 144.092C150.821 144.092 149.172 137.134 153.831 132.431C158.49 127.727 153.292 132.365 153.292 132.365L149.011 131.625L146.883 134.373C146.883 134.373 138.385 136.468 138.168 140.315Z" fill="black" />
        <path id="Vector_20" d="M137.287 140.051C137.287 140.051 145.589 143.415 146.127 144.822C146.664 146.229 147.974 149.555 147.974 149.555L147.94 160.309C147.94 160.309 150.728 172.091 151.775 174.256C152.822 176.422 158.215 197.359 158.215 197.359L167.723 228.841L180.385 269.996L190.254 276.399L193.912 267.038L170.416 194.256L165.899 179.825C165.899 179.825 156.462 154.676 155.288 152.211C154.114 149.747 149.956 143.865 149.956 143.865C149.956 143.865 148.306 136.908 152.963 132.212C157.62 127.515 152.42 132.137 152.42 132.137L148.139 131.396L146.011 134.145C146.011 134.145 137.523 136.211 137.287 140.051Z" fill="#4A846E" />
        <path id="Vector_21" opacity="0.1" d="M128.705 131.272C128.705 131.272 128.211 132.372 129.961 136.632C131.712 140.893 133.348 151.879 133.348 151.879C133.348 151.879 140.102 138.234 145.626 135.953L128.705 131.272Z" fill="black" />
        <path id="Vector_22" d="M128.13 130.036C128.13 130.036 127.629 131.133 129.382 135.387C131.135 139.64 132.767 150.64 132.767 150.64C132.767 150.64 139.521 136.995 145.053 134.709L128.13 130.036Z" fill="#E7EFFD" />
        <path id="Vector_23" opacity="0.1" d="M155.187 111.025L146.018 135.713C146.018 135.713 163.642 135.971 166.395 136.968C169.148 137.964 160.387 114.533 160.387 114.533L155.187 111.025Z" fill="black" />
        <path id="Vector_24" d="M155.193 109.421L146.023 134.109C146.023 134.109 163.647 134.368 166.4 135.364C169.153 136.361 160.398 112.932 160.398 112.932L155.193 109.421Z" fill="#E7EFFD" />
        <path id="Vector_25" opacity="0.1" d="M129.272 130.901C129.272 130.901 127.061 131.049 126.631 134.782C126.202 138.515 123.644 141.635 123.644 141.635C123.644 141.635 107.09 155.489 107.572 158.394L99.4264 163.981C99.4264 163.981 96.6591 166.182 99.4346 172.88C102.21 179.578 100.905 181.149 100.905 181.149C100.905 181.149 100.473 189.657 102.321 192.817C104.17 195.978 101.991 199.396 101.991 199.396L130.186 225.586C130.186 225.586 137.188 239.179 137.271 245.605C137.354 252.03 143.708 277.075 143.708 277.075C143.708 277.075 145.294 275.586 145.782 276.888C146.269 278.189 150.583 293.004 150.583 293.004C150.583 293.004 152.522 298.744 152.418 301.199C152.313 303.655 156.792 313.456 156.792 313.456L158.526 321.44C158.526 321.44 166.426 327.98 171.574 323.277C176.723 318.574 176.054 288.836 176.054 288.836L170.718 259.477L164.05 231.329L157.536 213.456L142.179 174.439L133.925 147.509C133.925 147.509 131.512 131.84 129.272 130.901Z" fill="black" />
        <path id="Vector_26" d="M128.13 130.036C128.13 130.036 125.921 130.177 125.502 133.882C125.082 137.587 122.52 140.737 122.52 140.737C122.52 140.737 105.96 154.589 106.443 157.494L98.2966 163.08C98.2966 163.08 95.5294 165.281 98.3048 171.98C101.08 178.678 99.7757 180.249 99.7757 180.249C99.7757 180.249 99.3428 188.757 101.192 191.917C103.04 195.078 100.862 198.496 100.862 198.496L129.079 224.662C129.079 224.662 136.008 238.301 136.132 244.733C136.256 251.164 142.571 276.196 142.571 276.196C142.571 276.196 144.157 274.707 144.645 276.009C145.132 277.311 149.446 292.125 149.446 292.125C149.446 292.125 151.385 297.865 151.278 300.328C151.171 302.79 155.655 312.577 155.655 312.577L157.393 320.571C157.393 320.571 165.288 327.101 170.443 322.4C175.598 317.7 174.878 287.943 174.878 287.943L169.52 258.585L162.853 230.437L156.358 212.571L141 173.554L132.747 146.624C132.747 146.624 130.341 130.933 128.13 130.036Z" fill="#B8A57D" />
        <path id="Vector_27" opacity="0.1" d="M102.458 248.423L98.6859 256.028C98.6859 256.028 90.0684 261.604 83.057 263.772L79.1681 264.213L78.4138 264.312L79.1927 264.141C82.9766 263.169 85.5492 261.596 87.2187 259.655C93.9721 251.904 86.4742 238.412 84.6575 235.43C84.4803 235.129 84.3661 234.938 84.3125 234.864L84.2803 234.853L84.3769 234.886C84.572 235.008 84.7765 235.113 84.9885 235.2C85.1671 235.274 85.3497 235.337 85.5356 235.389L91.253 239.651L91.4024 239.886L102.458 248.423Z" fill="black" />
        <path id="Vector_28" d="M103.25 195.973L100.871 198.467L103.256 204.608C103.256 204.608 99.7618 206.055 100.771 210.627C101.781 215.2 101.102 218.025 101.102 218.025C101.102 218.025 97.9128 226.07 99.529 230.26L97.174 234.504C97.174 234.504 88.4956 237.351 85.1615 235.116C85.1615 235.116 101.296 259.675 79.2723 264.6C79.2723 264.6 105.077 261.512 106.717 262.269C108.357 263.026 116.713 263.014 121.075 256.124C125.436 249.233 124.332 243.39 124.332 243.39C124.332 243.39 126.103 231.542 125.716 230.179C125.329 228.816 129.091 224.69 129.091 224.69L127.434 198.028L103.25 195.973Z" fill="#B8A57D" />
        <path id="Vector_29" opacity="0.1" d="M155.197 109.431L155.182 109.473L155.607 111.289L157.293 118.538L157.587 119.774L158 121.585L158.733 124.808L163.05 134.825L163.771 136.495L170.654 152.442L185.829 187.683L199.683 205.234C199.683 205.234 201.734 207.538 203.824 209.935L203.735 207.748C203.384 199.865 203.016 192.122 202.63 184.52C202.635 184.495 202.643 184.471 202.655 184.448C201.182 155.519 199.446 128.75 197.566 105.183C197.39 105.205 197.215 105.244 197.043 105.298C194.515 106.096 191.617 106.774 190.51 107.04L190.049 107.145C189.42 107.704 188.761 108.221 188.076 108.693C186.994 109.43 185.739 110.084 184.979 109.822C183.447 109.294 174.432 111.93 172.937 112.86C172.289 113.185 171.607 113.413 170.912 113.536C168.857 114.002 166.235 114.256 166.235 114.256L160.603 113.426L160.382 113.397L160.318 113.375C158.824 113.092 156.255 110.538 155.481 109.712L155.258 109.483L155.197 109.431Z" fill="black" />
        <path id="Vector_30" d="M155.184 109.426L155.819 111.386L158.126 118.482L158.497 119.64L158.532 119.708L159.928 124.014L164.634 134.931L165.37 136.639L170.651 148.896L187.022 186.896L200.876 204.447L203.718 207.671C203.367 199.787 202.999 192.044 202.614 184.442C202.618 184.417 202.626 184.393 202.638 184.371C201.165 155.441 199.43 128.673 197.549 105.105C197.537 104.973 197.531 104.843 197.517 104.718C194.488 105.631 191.199 106.335 191.199 106.335C191.199 106.335 190.915 106.596 190.477 106.948C189.707 107.579 188.887 108.131 188.029 108.597C187.442 108.971 186.765 109.117 186.116 109.008C184.585 108.48 175.569 111.115 174.075 112.046C173.049 112.519 171.973 112.824 170.883 112.951C169.117 113.269 167.375 113.435 167.375 113.435L161.526 112.586C159.978 112.356 156.283 110.06 155.392 109.49C155.336 109.478 155.283 109.459 155.231 109.434L155.193 109.421L155.184 109.426Z" fill="#B8A57D" />
        <path id="Vector_31" opacity="0.1" d="M205.815 304.106L206.724 303.556L206.714 303.273C206.431 303.572 206.131 303.85 205.815 304.106Z" fill="black" />
        <path id="Vector_32" opacity="0.1" d="M204.245 312.924L206.983 322.365C206.947 319.461 206.906 316.535 206.861 313.586L204.245 312.924Z" fill="black" />
        <path id="Vector_33" d="M195.009 255.181L195.425 255.708L195.736 256.103L202.16 264.29L202.28 264.211L205.698 262.067L206.072 261.836L205.679 261.39L199.11 253.999L198.69 253.527L198.231 253.017C197.159 253.726 196.088 254.451 195.009 255.181Z" fill="#3F3D56" />
        <path id="Vector_34" opacity="0.1" d="M103.891 176.58C103.891 176.58 109.212 176.017 111.562 178.329C113.912 180.64 103.891 176.58 103.891 176.58Z" fill="black" />
        <path id="Vector_35" opacity="0.1" d="M105.08 215.738C105.08 215.738 102.561 227.647 106.597 229.182C110.633 230.716 105.08 215.738 105.08 215.738Z" fill="black" />
        <path id="Vector_36" opacity="0.1" d="M190.647 239.064C190.95 238.082 194.617 208.736 198.664 208.693L190.647 239.064Z" fill="black" />
        <path id="Vector_37" opacity="0.1" d="M151.456 86.4119C153.37 90.4682 154.298 95.0402 154.157 99.7209L153.965 99.7983C152.328 100.368 150.686 99.012 149.012 98.5629C147.985 98.2889 146.883 98.3767 145.862 98.814C144.841 99.2513 143.952 100.016 143.319 101.001C142.709 102.065 142.375 103.273 142.354 104.491C142.332 105.708 142.625 106.886 143.198 107.892C140.887 105.027 139.463 101.366 137.164 98.4894C134.864 95.6128 131.072 93.5793 128.018 95.338C126.704 96.0993 125.435 97.5467 124.007 97.0945C123.157 96.8018 122.568 95.92 121.79 95.4202C117.902 93.0583 112.191 98.8927 110.391 102.401C108.64 105.791 106.886 110.777 104.302 114.431C102.8 111.182 101.923 107.603 101.72 103.897C101.517 100.192 101.992 96.4321 103.12 92.8335C104.247 89.2349 106.004 85.8676 108.29 82.9238C110.576 79.9801 113.346 77.5176 116.442 75.6769C119.539 73.8363 122.901 72.6534 126.337 72.196C129.772 71.7386 133.214 72.0156 136.466 73.0111C139.718 74.0066 142.716 75.7012 145.289 77.998C147.861 80.2949 149.959 83.1491 151.461 86.3976L151.456 86.4119Z" fill="black" />
        <path id="Vector_38" d="M121.495 94.8153C122.275 95.3079 122.848 96.2161 123.711 96.4896C125.121 96.9753 126.409 95.4944 127.722 94.7332C130.775 92.9579 134.57 94.9842 136.862 97.8823C139.154 100.78 140.583 104.427 142.9 107.294C142.324 106.289 142.029 105.111 142.051 103.893C142.072 102.675 142.408 101.466 143.021 100.404C143.654 99.4185 144.543 98.6536 145.564 98.2163C146.585 97.779 147.687 97.6911 148.714 97.9651C150.388 98.4142 152.017 99.7663 153.663 99.1912C155.308 98.6162 156.035 96.2553 155.798 94.289C155.562 92.3226 154.674 90.5314 154.226 88.6122C153.375 84.9808 154.136 81.1221 153.779 77.3734C153.343 72.8411 151.369 68.7492 148.234 65.8798C146.589 64.3865 144.647 63.294 142.986 61.8033C140.46 59.5433 138.593 56.3926 135.882 54.42C131.346 51.1163 124.759 52.0731 121.096 56.5608C119.345 58.6966 118.256 61.4598 116.425 63.5124C113.967 66.259 110.498 67.4036 107.272 68.7837C104.046 70.1637 100.697 72.1085 99.2408 75.6875C97.5726 79.7765 98.9296 84.7402 97.5477 88.9598C96.9402 90.723 95.926 92.2663 95.2461 93.9886C94.5663 95.7109 94.2726 97.8378 95.1905 99.4159C96.3726 101.46 99.2753 102.189 99.4869 104.626C99.493 105.363 99.3652 106.103 99.1108 106.804C98.0461 110.551 97.7836 114.46 98.3441 118.223C104.442 116.763 107.286 107.193 110.06 101.816C111.895 98.2879 117.6 92.4512 121.495 94.8153Z" fill="#7C5C5C" />
        <path id="Vector_39" opacity="0.1" d="M118.715 196.877C118.715 196.877 129.835 220.482 129.006 223.974C128.177 227.466 118.715 196.877 118.715 196.877Z" fill="black" />
        <g id="Group" opacity="0.1">
            <path id="Vector_40" d="M98.862 102.406C98.6718 100.032 95.8814 99.2705 94.656 97.3309C94.6774 98.0703 94.8713 98.7799 95.2196 99.3939C96.0864 100.89 97.8771 101.691 98.8572 102.963C98.8762 102.777 98.8778 102.59 98.862 102.406Z" fill="black" />
            <path id="Vector_41" d="M142.136 104.914C139.894 102.081 138.473 98.4933 136.208 95.6844C133.943 92.8754 130.116 90.7743 127.068 92.5352C125.755 93.2965 124.479 94.7416 123.057 94.2917C122.201 93.9967 121.621 93.11 120.841 92.6174C116.946 90.2533 111.241 96.0899 109.435 99.5964C106.725 104.852 103.953 114.087 98.1441 115.878C98.1813 116.69 98.2584 117.427 98.3733 118.202C104.471 116.741 107.315 107.171 110.089 101.794C111.895 98.2878 117.626 92.46 121.495 94.8153C122.275 95.3079 122.848 96.216 123.711 96.4895C125.121 96.9752 126.409 95.4944 127.722 94.7331C130.775 92.9579 134.57 94.9842 136.862 97.8822C139.154 100.78 140.583 104.427 142.9 107.294C142.5 106.573 142.24 105.765 142.136 104.914Z" fill="black" />
            <path id="Vector_42" d="M155.152 92.0694C155.389 94.0358 154.692 96.3913 153.016 96.9717C151.34 97.5522 149.741 96.1947 148.067 95.7456C147.039 95.4721 145.937 95.5598 144.915 95.9966C143.894 96.4334 143.003 97.1974 142.368 98.182C141.789 99.1949 141.46 100.34 141.415 101.499C141.37 102.659 141.61 103.79 142.111 104.778C141.913 103.274 142.24 101.709 143.028 100.382C143.661 99.3968 144.551 98.6319 145.572 98.1946C146.593 97.7573 147.694 97.6695 148.721 97.9435C150.395 98.3926 152.025 99.7446 153.67 99.1696C155.316 98.5946 156.043 96.2337 155.806 94.2673C155.632 93.1281 155.345 92.0199 154.95 90.9618C155.037 91.3252 155.104 91.695 155.152 92.0694Z" fill="black" />
            <path id="Vector_43" d="M153.151 75.1607C153.489 78.9028 152.696 82.7503 153.599 86.3995C153.77 87.1372 154.007 87.8497 154.244 88.5622C153.403 84.9423 154.161 81.0908 153.825 77.3652C153.67 75.6866 153.297 74.0551 152.715 72.5188C152.925 73.3812 153.071 74.2646 153.151 75.1607Z" fill="black" />
        </g>
        <path id="Vector_44" d="M45.5696 236.32C45.4309 236.273 45.3615 236.109 45.4145 235.955C45.4675 235.802 45.6228 235.716 45.7614 235.764C45.9001 235.811 45.9695 235.975 45.9165 236.128C45.8635 236.282 45.7082 236.368 45.5696 236.32Z" fill="#E6E8EC" />
        <g id="Group 4">
            <path id="Vector_45" d="M54.5766 216.767C52.011 206.91 50.4732 196.727 49.9903 186.4L49.1907 169.308C44.5093 183.413 47.8381 200.235 54.5766 216.767Z" fill="#E5E5E5" />
            <path id="Vector_46" d="M57.4534 210.946C57.3457 204.813 57.7498 198.656 58.6611 192.544L60.1695 182.425C56.4408 190.062 56.1383 200.361 57.4534 210.946Z" fill="#E5E5E5" />
            <g id="Group_2">
                <path id="Vector 3" d="M67.0756 202.393L65.9082 219.712L62.1563 218.623L63.3237 201.305L73.0286 193.527L75.2922 196.832L67.0756 202.393Z" fill="#E5E5E5" />
                <path id="Vector_47" d="M45.8614 220.976L45.8189 220.211C45.7824 219.603 45.9593 219.009 46.3027 218.558C46.6461 218.106 47.1325 217.863 47.6356 217.854L72.1616 218.255C72.6674 218.265 73.1267 218.524 73.4656 218.967C73.7914 219.433 73.9569 220.033 73.9117 220.638L73.8315 221.688L73.2618 229.218L71.0633 258.289C70.983 259.339 70.3011 260.161 69.4691 260.261C69.3901 260.278 69.3269 260.291 69.2453 260.289L49.8347 259.82C49.6397 259.822 49.4552 259.782 49.281 259.7C48.6241 259.425 48.1472 258.693 48.0886 257.812L45.8614 220.976Z" fill="#463A22" />
            </g>
        </g>
    </g>
    <defs>
        <linearGradient id="paint0_linear_147_4" x1="150.696" y1="440.785" x2="77.0032" y2="59.3797" gradientUnits="userSpaceOnUse">
            <stop stop-color="#808080" stop-opacity="0.25" />
            <stop offset="0.54" stop-color="#808080" stop-opacity="0.12" />
            <stop offset="1" stop-color="#808080" stop-opacity="0.1" />
        </linearGradient>
    </defs>
</svg>